<?xml version="1.0" standalone="no"?>
<!DOCTYPE svg PUBLIC "-//W3C//DTD SVG 1.1//EN" "http://www.w3.org/Graphics/SVG/1.1/DTD/svg11.dtd" >
<svg xmlns="http://www.w3.org/2000/svg">
<metadata>Generated by IcoMoon</metadata>
<defs>
<font id="icomoon" horiz-adv-x="1024">
<font-face units-per-em="1024" ascent="960" descent="-64" />
<missing-glyph horiz-adv-x="1024" />
<glyph unicode="&#x20;" horiz-adv-x="512" d="" />
<glyph unicode="&#xe900;" glyph-name="arrow" d="M999.624 685.162l-49.152 46.898c-15.386 14.345-36.098 23.15-58.869 23.15-0.401 0-0.799-0.002-1.198-0.007h0.060c-0.54 0.012-1.176 0.019-1.814 0.019-22.296 0-42.53-8.83-57.395-23.186l0.024 0.024-319.281-304.125-319.485 304.125c-14.841 14.328-35.073 23.157-57.367 23.157-0.566 0-1.133-0.005-1.699-0.017l0.084 0.002c-0.278 0.002-0.607 0.005-0.936 0.005-22.769 0-43.48-8.806-58.917-23.196l0.050 0.048-48.64-46.898c-15.432-13.927-25.089-34-25.089-56.327 0-0.214 0-0.425 0.002-0.638v0.034c0-22.529 8.294-41.368 24.986-56.32l427.822-407.343c14.522-14.69 34.677-23.789 56.954-23.789 0.785 0 1.567 0.012 2.347 0.034l-0.115-0.002c0.413-0.007 0.9-0.012 1.39-0.012 22.735 0 43.351 9.067 58.43 23.784l-0.017-0.017 427.822 407.343c15.005 13.721 24.379 33.379 24.379 55.231 0 0.384-0.002 0.766-0.010 1.147v-0.058c0 0.072 0 0.156 0 0.24 0 22.305-9.348 42.427-24.338 56.663l-0.034 0.031z" />
<glyph unicode="&#xe901;" glyph-name="check" d="M997.966 829.343c-15.645 17.383-38.217 28.262-63.332 28.262s-47.689-10.881-63.265-28.185l-0.067-0.077-509.532-554.485-208.381 229.167c-15.856 16.963-38.366 27.537-63.344 27.537-25.66 0-48.717-11.157-64.58-28.886l-0.072-0.084c-15.784-18.46-25.391-42.618-25.391-69.018 0-26.731 9.849-51.162 26.116-69.863l-0.11 0.13 268.488-291.117 3.89-4.915c35.327-39.218 92.158-39.218 127.382 0l572.199 623.4c34.713 38.502 34.713 100.349 0 138.134z" />
<glyph unicode="&#xe902;" glyph-name="minus" d="M934.26 358.367h-844.735c-0.065 0-0.143 0-0.224 0-49.318 0-89.3 39.982-89.3 89.3 0 0.117 0 0.234 0 0.351v-0.018c0 49.474 40.047 89.633 89.633 89.633h844.735c49.503 0 89.633-40.13 89.633-89.633s-40.13-89.633-89.633-89.633v0z" />
<glyph unicode="&#xe903;" glyph-name="plus" d="M934.26 358.367h-332.791v-332.791c-1.747-48.127-41.183-86.479-89.575-86.479s-87.828 38.352-89.573 86.32l-0.005 0.159v332.791h-332.791c-0.065 0-0.143 0-0.224 0-49.318 0-89.3 39.982-89.3 89.3 0 0.117 0 0.234 0 0.351v-0.018c0 49.474 40.047 89.633 89.633 89.633h332.791v332.791c1.747 48.127 41.183 86.479 89.575 86.479s87.828-38.352 89.573-86.32l0.005-0.159v-332.791h332.791c49.503 0 89.633-40.13 89.633-89.633s-40.13-89.633-89.633-89.633v0z" />
<glyph unicode="&#xe904;" glyph-name="search" d="M673.061 738.679c-57.801 57.815-137.659 93.575-225.87 93.575s-168.069-35.76-225.87-93.575v0c-57.815-57.801-93.575-137.659-93.575-225.87s35.76-168.069 93.575-225.87v0c57.801-57.815 137.659-93.575 225.87-93.575s168.069 35.76 225.87 93.575v0c57.815 57.801 93.575 137.659 93.575 225.87s-35.76 168.069-93.575 225.87v0zM1005.3-45.301c-11.578-11.555-27.559-18.7-45.21-18.7s-33.633 7.145-45.21 18.701l-201.164 201.216c-175.207-130.92-423.58-118.528-582.71 40.653-80.941 80.919-131.005 192.72-131.005 316.213s50.064 235.294 131.004 316.212l0.001 0.001c80.919 80.941 192.72 131.005 316.213 131.005s235.294-50.064 316.212-131.004l0.001-0.001c159.233-159.131 171.572-407.555 40.602-582.71l201.269-201.217c11.552-11.569 18.696-27.543 18.696-45.184s-7.144-33.616-18.696-45.185l0.001 0.001z" />
<glyph unicode="&#xe905;" glyph-name="facebook" d="M382.88 625.279h-107.2v-175.104h107.2v-514.175h206.208v516.352h143.872l15.36 172.864h-159.232v98.496c0 40.768 8.256 56.896 47.616 56.896h111.616v179.392h-142.783c-153.472 0-222.655-67.519-222.655-196.927v-137.791z" />
<glyph unicode="&#xe906;" glyph-name="instagram" d="M905.856 526.783h-89.152c6.528-25.216 10.368-51.52 10.368-78.72 0-174.009-141.063-315.071-315.071-315.071s-315.071 141.063-315.071 315.071v0c0 27.199 3.84 53.503 10.368 78.72h-89.152v-433.279c0-21.696 17.599-39.295 39.424-39.295h708.863c21.76 0 39.424 17.599 39.424 39.36v433.279zM913.728 800.894c0 22.621-18.339 40.96-40.96 40.96v0h-122.88c-22.621 0-40.96-18.339-40.96-40.96v0-122.88c0-22.591 18.367-40.96 40.96-40.96h122.88c22.621 0 40.96 18.339 40.96 40.96v0 122.88zM512 644.926c-1.056 0.021-2.302 0.031-3.55 0.031-108.76 0-196.927-88.167-196.927-196.927s88.167-196.927 196.927-196.927c1.248 0 2.493 0.012 3.736 0.034l-0.186-0.003c107.223 1.995 193.378 89.383 193.378 196.896s-86.155 194.901-193.191 196.893l-0.186 0.003zM905.856-64h-787.71c-65.248 0-118.144 52.894-118.144 118.144 0 0.022 0 0.045 0 0.067v-0.003 787.647c0 65.28 52.927 118.144 118.144 118.144h787.71c65.28 0 118.144-52.864 118.144-118.144v-787.647c0-65.28-52.864-118.207-118.144-118.207z" />
<glyph unicode="&#xe907;" glyph-name="twitter" d="M1024.001 765.051c-35.061-15.956-75.731-27.563-118.382-32.757l-2.016-0.201c43.345 26.26 75.932 66.569 91.741 114.504l0.425 1.487c-38.332-23.158-82.948-40.818-130.477-50.45l-2.695-0.455c-38.36 40.63-92.592 65.924-152.73 65.924-115.915 0-209.882-93.967-209.882-209.882 0-16.742 1.96-33.027 5.663-48.636l-0.286 1.425c-174.64 9.034-328.249 92.029-431.246 218.015l-0.844 1.064c-17.864-30.227-28.419-66.61-28.419-105.458 0-72.435 36.693-136.298 92.506-174.017l0.743-0.473c-35.028 1.111-67.592 10.684-96.020 26.729l1.042-0.54c-2.299-97.084 67.321-187.974 168.173-208.22-16.518-4.668-35.488-7.35-55.083-7.35-14.021 0-27.721 1.374-40.973 3.994l1.334-0.22c27.589-83.976 104.52-143.865 195.688-145.624l0.205-0.003c-70.908-55.989-161.577-89.809-260.145-89.809-17.717 0-35.179 1.093-52.323 3.214l2.052-0.207c90.681-59.076 201.659-94.211 320.842-94.211 0.198 0 0.394 0 0.591 0h-0.031c389.233 0 609.206 328.81 595.92 623.704 41.197 29.986 75.912 65.92 103.663 106.951l0.958 1.503z" />
<glyph unicode="&#xe908;" glyph-name="star" d="M512 133.359l-316.416-163.226 60.416 345.771-256 244.873 353.758 50.517 158.242 314.573 158.242-314.641 353.758-50.449-256-244.873 60.416-345.771z" />
<glyph unicode="&#xe909;" glyph-name="cart" d="M1013.136 666.356c9.062-11.725 12.441-25.752 10.189-42.136l-42.955-255.172c-1.352-13.257-7.847-24.779-17.428-32.701l-0.082-0.066c-9.098-8.012-21.113-12.902-34.271-12.902-0.065 0-0.131 0-0.196 0h-625.784l-12.441-72.548h596.457c14.336 0 26.725-5.274 37.272-15.82 10.546-10.496 15.82-23.552 15.82-39.167s-5.274-28.671-15.82-39.218c-9.314-9.756-22.421-15.821-36.944-15.821-0.115 0-0.23 0-0.346 0.001h-659.669c-15.872 0-29.388 6.656-40.703 19.916-8.136 9.939-13.066 22.778-13.066 36.767 0 3.123 0.246 6.191 0.719 9.181l-0.043-0.33 28.21 159.226-42.904 447.113-122.006 39.781c-13.867 4.297-24.942 14.020-30.947 26.625l-0.131 0.305c-3.827 7.681-6.067 16.731-6.067 26.303 0 5.634 0.775 11.085 2.226 16.255l-0.101-0.422c4.506 14.847 13.363 25.599 26.52 32.203 13.209 6.656 26.572 7.987 40.14 4.095l155.847-51.506c9.83-3.123 17.919-9.010 24.32-17.561 6.399-8.601 10.342-18.329 11.878-29.285l9.010-88.931 707.147-81.917c15.872-2.356 27.852-9.778 36.146-22.271zM281.618 89.61c21.35 0 39.422-7.424 54.424-22.271 14.899-14.847 22.373-32.767 22.373-54.014 0-21.144-7.475-39.372-22.425-54.526-13.407-14.054-32.28-22.793-53.194-22.793-0.414 0-0.828 0.004-1.241 0.011l0.062-0.001c-21.35 0-39.422 7.578-54.424 22.784-13.82 13.621-22.382 32.544-22.382 53.468 0 0.372 0.002 0.744 0.008 1.115l-0.001-0.056c0 21.196 7.475 39.218 22.425 54.014 14.899 14.847 33.023 22.271 54.372 22.271zM793.6 89.61c21.35 0 39.422-7.424 54.424-22.271 14.899-14.847 22.373-32.767 22.373-54.014 0-21.144-7.475-39.372-22.373-54.526-13.407-14.055-32.28-22.793-53.195-22.793-0.432 0-0.863 0.004-1.294 0.011l0.065-0.001c-21.35 0-39.422 7.578-54.372 22.784-13.85 13.625-22.432 32.569-22.432 53.517 0 0.355 0.002 0.709 0.007 1.062v-0.054c0 21.196 7.475 39.218 22.425 54.014 14.899 14.847 33.023 22.271 54.372 22.271z" />
<glyph unicode="&#xe90a;" glyph-name="cross" d="M990.158 758.278l-310.275-310.275 310.275-310.275c20.040-21.136 32.364-49.759 32.364-81.263 0-65.281-52.92-118.199-118.199-118.199-31.485 0-60.095 12.31-81.278 32.38l0.053-0.050-310.348 310.348-310.348-310.348c-21.321-21.374-50.803-34.596-83.375-34.596-0.055 0-0.108 0-0.163 0h0.009c-65.238 0.057-118.1 52.955-118.1 118.199 0 32.615 13.21 62.145 34.571 83.531l310.273 310.273-310.275 310.275c-21.393 21.384-34.625 50.93-34.625 83.567 0 65.255 52.9 118.155 118.155 118.155 32.618 0 62.15-13.217 83.531-34.589l310.347-310.275 310.275 310.275c21.228 20.5 50.171 33.131 82.064 33.131 65.281 0 118.199-52.92 118.199-118.199 0-31.893-12.631-60.835-33.165-82.098l0.033 0.034z" />
<glyph unicode="&#xe90b;" glyph-name="overview" d="M910.223 960h-796.445c-62.577 0-113.777-51.2-113.777-113.777v-796.445c0-62.577 51.2-113.777 113.777-113.777h796.445c62.577 0 113.777 51.2 113.777 113.777v796.445c0 62.577-51.2 113.777-113.777 113.777zM284.443 163.555c-31.289 0-56.889 25.6-56.889 56.889v284.444c0 31.289 25.6 56.889 56.889 56.889s56.889-25.6 56.889-56.889v-284.444c0-31.289-25.6-56.889-56.889-56.889zM511.999 163.555c-31.289 0-56.889 25.6-56.889 56.889v455.111c0 31.289 25.6 56.889 56.889 56.889s56.889-25.6 56.889-56.889v-455.111c0-31.289-25.6-56.889-56.889-56.889zM739.556 163.555c-31.289 0-56.889 25.6-56.889 56.889v113.777c0 31.289 25.6 56.889 56.889 56.889s56.889-25.6 56.889-56.889v-113.777c0-31.289-25.6-56.889-56.889-56.889z" />
<glyph unicode="&#xe90c;" glyph-name="payment" d="M512 960c-282.624 0-512-229.376-512-512s229.376-512 512-512 512 229.376 512 512-229.376 512-512 512zM584.192 136.192v-29.696c0-37.376-30.72-68.096-68.096-68.096h-0.512c-37.376 0-68.096 30.72-68.096 68.096v30.72c-68.096 14.336-128.512 51.712-154.112 114.688-11.776 28.16 10.24 59.392 40.96 59.392h12.288c18.944 0 34.304-12.8 41.472-30.72 14.848-38.4 53.76-65.024 128.512-65.024 100.352 0 122.88 50.176 122.88 81.408 0 42.496-22.528 82.432-136.704 109.568-126.976 30.72-214.016 82.944-214.016 187.904 0 88.064 71.168 145.407 159.231 164.352v30.72c0 37.376 30.72 68.096 68.096 68.096h0.512c37.376 0 68.096-30.72 68.096-68.096v-31.744c70.656-17.408 115.2-61.44 134.656-115.712 10.24-28.16-11.264-57.856-41.472-57.856h-13.312c-18.944 0-34.304 13.312-39.424 31.744-11.776 38.912-44.032 64-108.544 64-76.8 0-122.88-34.816-122.88-83.968 0-43.008 33.28-71.168 136.704-97.792s214.016-71.168 214.016-200.192c-1.024-93.696-71.168-144.896-160.256-161.792z" />
<glyph unicode="&#xe90d;" glyph-name="products" d="M60.236 327.53h120.47c33.13 0 60.236 27.106 60.236 60.236v120.47c0 33.13-27.106 60.236-60.236 60.236h-120.47c-33.13 0-60.236-27.106-60.236-60.236v-120.47c0-33.13 27.106-60.236 60.236-60.236zM60.236 26.353h120.47c33.13 0 60.236 27.106 60.236 60.236v120.47c0 33.13-27.106 60.236-60.236 60.236h-120.47c-33.13 0-60.236-27.106-60.236-60.236v-120.47c0-33.13 27.106-60.236 60.236-60.236zM60.236 628.705h120.47c33.13 0 60.236 27.106 60.236 60.236v120.47c0 33.13-27.106 60.236-60.236 60.236h-120.47c-33.13 0-60.236-27.106-60.236-60.236v-120.47c0-33.13 27.106-60.236 60.236-60.236zM361.411 327.53h602.352c33.13 0 60.236 27.106 60.236 60.236v120.47c0 33.13-27.106 60.236-60.236 60.236h-602.352c-33.13 0-60.236-27.106-60.236-60.236v-120.47c0-33.13 27.106-60.236 60.236-60.236zM361.411 26.353h602.352c33.13 0 60.236 27.106 60.236 60.236v120.47c0 33.13-27.106 60.236-60.236 60.236h-602.352c-33.13 0-60.236-27.106-60.236-60.236v-120.47c0-33.13 27.106-60.236 60.236-60.236zM301.177 809.411v-120.47c0-33.13 27.106-60.236 60.236-60.236h602.352c33.13 0 60.236 27.106 60.236 60.236v120.47c0 33.13-27.106 60.236-60.236 60.236h-602.352c-33.13 0-60.236-27.106-60.236-60.236z" />
<glyph unicode="&#xe90e;" glyph-name="promotion" d="M993.792 469.504l-460.8 460.8c-18.432 18.432-44.032 29.696-72.192 29.696h-358.4c-56.32 0-102.4-46.080-102.4-102.4v-358.4c0-28.16 11.264-53.76 30.208-72.704l460.8-460.8c18.432-18.432 44.032-29.696 72.192-29.696s53.76 11.264 72.192 30.208l358.4 358.4c18.944 18.432 30.208 44.032 30.208 72.192s-11.776 54.272-30.208 72.704zM179.202 703.999c-42.496 0-76.8 34.304-76.8 76.8s34.304 76.8 76.8 76.8 76.8-34.304 76.8-76.8-34.304-76.8-76.8-76.8z" />
<glyph unicode="&#xe90f;" glyph-name="setting" d="M892.527 397.823c2.048 16.384 3.584 32.768 3.584 50.175s-1.536 33.792-3.584 50.175l108.032 84.48c9.728 7.68 12.288 21.504 6.144 32.768l-102.399 177.152c-6.144 11.264-19.968 15.36-31.232 11.264l-127.488-51.2c-26.624 20.48-55.296 37.376-86.528 50.175l-19.456 135.68c-1.768 12.221-12.17 21.506-24.742 21.506-0.121 0-0.242-0.001-0.364-0.002h-204.782c-12.8 0-23.552-9.216-25.088-21.504l-19.456-135.68c-31.232-12.8-59.904-30.208-86.528-50.175l-127.488 51.2c-11.776 4.608-25.088 0-31.232-11.264l-102.399-177.152c-6.656-11.264-3.584-25.088 6.144-32.768l108.032-84.48c-2.048-16.384-3.584-33.28-3.584-50.175s1.536-33.792 3.584-50.175l-108.032-84.48c-9.728-7.68-12.288-21.504-6.144-32.768l102.399-177.152c6.144-11.264 19.968-15.36 31.232-11.264l127.488 51.2c26.624-20.48 55.296-37.376 86.528-50.175l19.456-135.68c1.536-12.288 12.288-21.504 25.088-21.504h204.8c12.8 0 23.552 9.216 25.088 21.504l19.456 135.68c31.232 12.8 59.904 30.208 86.528 50.175l127.488-51.2c11.776-4.608 25.088 0 31.232 11.264l102.399 177.152c6.144 11.264 3.584 25.088-6.144 32.768l-108.032 84.48zM512.112 268.8c-98.816 0-179.199 80.384-179.199 179.199s80.384 179.199 179.199 179.199 179.199-80.384 179.199-179.199-80.384-179.199-179.199-179.199z" />
<glyph unicode="&#xe910;" horiz-adv-x="4915" d="M42.023 522.477c0-18.158 4.54-31.57 13.619-40.237s17.746-12.999 26-12.999c8.254 0 15.682 0.825 22.285 2.477 61.904 19.809 116.792 29.714 164.663 29.714 56.126 0 97.807-11.762 125.045-35.285s40.856-62.935 40.856-118.235v-9.904h-149.807c-93.268 0-165.076-18.984-215.424-56.951-46.221-34.666-69.332-82.538-69.332-143.616 0-56.126 19.809-101.522 59.427-136.188 37.967-33.015 85.427-49.523 142.378-49.523 57.777 0 105.443 9.904 142.997 29.714s67.475 41.269 89.76 64.38v-32.19c0-15.682 5.365-28.888 16.095-39.619s23.936-16.095 39.619-16.095 29.095 5.365 40.237 16.095c11.142 10.73 16.714 23.936 16.714 39.619v350.374c0 66.856-20.635 122.569-61.904 167.14-46.221 51.173-111.426 76.761-195.615 76.761-74.284 0-146.092-14.857-215.424-44.571-21.46-9.079-32.19-22.698-32.19-40.856zM162.116 225.34c33.015 14.857 78.824 22.285 137.426 22.285h134.95v-103.998c-21.46-23.936-48.904-45.396-82.332-64.38-30.765-17.908-67.713-28.479-107.129-28.479-0.422 0-0.845 0.001-1.266 0.004h0.065c-87.49 0-131.236 33.015-131.236 99.046 0 35.492 16.508 60.665 49.523 75.523zM1702.276 91.628l-143.616 465.515c-4.117 13.259-12.15 24.297-22.731 32.068l-0.173 0.122c-11.142 8.254-23.73 12.381-37.761 12.381s-26.618-4.127-37.761-12.381c-11.142-8.254-18.778-18.984-22.905-32.19l-143.616-465.515-144.855 476.657c-6.603 22.285-24.348 33.428-53.237 33.428-14.635-0.015-27.823-6.188-37.118-16.068l-0.024-0.026c-10.73-10.73-16.095-21.666-16.095-32.809s1.238-20.428 3.714-27.857l175.806-515.038c4.952-14.031 14.031-26.206 27.238-36.523s28.063-15.476 44.571-15.476c16.508 0 31.365 5.159 44.571 15.476 12.598 9.677 22.374 22.438 28.267 37.17l0.209 0.591 131.236 409.802 131.236-409.802c6.103-15.324 15.877-28.084 28.269-37.609l0.208-0.153c13.206-10.317 28.063-15.476 44.571-15.476s31.365 5.159 44.571 15.476c13.206 10.317 22.285 22.491 27.238 36.523l175.806 515.038c2.375 7.655 3.743 16.456 3.743 25.577 0 0.802-0.010 1.601-0.031 2.398l0.002-0.118c0 11.142-5.365 22.079-16.095 32.809-9.319 9.906-22.508 16.080-37.139 16.095h-0.003c-28.888 0-46.634-11.142-53.237-33.428l-144.855-476.657zM2443.881 522.477c0-18.158 4.54-31.57 13.619-40.237s17.746-12.999 26-12.999c8.254 0 15.682 0.825 22.285 2.477 61.904 19.809 116.792 29.714 164.663 29.714 56.126 0 97.807-11.762 125.045-35.285s40.856-62.935 40.856-118.235v-9.904h-149.807c-93.268 0-165.076-18.984-215.424-56.951-46.221-34.666-69.332-82.538-69.332-143.616 0-56.126 19.809-101.522 59.427-136.188 37.967-33.015 85.427-49.523 142.378-49.523 57.777 0 105.443 9.904 142.997 29.714s67.475 41.269 89.76 64.38v-32.19c0-15.682 5.365-28.888 16.095-39.619s23.936-16.095 39.619-16.095 29.095 5.365 40.237 16.095c11.142 10.73 16.714 23.936 16.714 39.619v350.374c0 66.856-20.635 122.569-61.904 167.14-46.221 51.173-111.426 76.761-195.615 76.761-74.284 0-146.092-14.857-215.424-44.571-21.46-9.079-32.19-22.698-32.19-40.856zM2563.974 225.34c33.015 14.857 78.824 22.285 137.426 22.285h134.95v-103.998c-21.46-23.936-48.904-45.396-82.332-64.38-30.765-17.908-67.713-28.479-107.129-28.479-0.422 0-0.845 0.001-1.266 0.004h0.065c-87.49 0-131.236 33.015-131.236 99.046 0 35.492 16.508 60.665 49.523 75.523zM3623.763 544.762c0 15.682-5.572 29.095-16.714 40.237-10 10.316-23.986 16.719-39.466 16.719-0.271 0-0.542-0.002-0.812-0.006h0.041c-15.682 0-28.888-5.572-39.619-16.714-9.956-10.092-16.104-23.959-16.104-39.264 0-0.343 0.003-0.684 0.009-1.025l-0.001 0.051v-531.132c0-15.682 5.365-28.888 16.095-39.619s23.936-16.095 39.619-16.095c15.631 0 29.095 5.365 40.237 16.095s16.714 23.936 16.714 39.619v376.373c21.307 31.891 48.398 58.193 79.991 77.974l1.102 0.644c32.602 20.221 69.486 30.333 110.808 30.333h6.19c16.508 0 30.127 4.746 40.856 14.238s16.095 22.285 16.095 38.38-5.159 29.507-15.476 40.237c-9.488 9.935-22.838 16.113-37.631 16.113-0.482 0-0.961-0.006-1.439-0.019l0.071 0.002h-6.19c-71.808 0-136.601-38.792-194.378-116.378v53.237zM4438.414 240.196h419.706c17.333 0 31.107 5.365 41.476 16.095 10.266 10.73 15.476 23.936 15.476 39.619 0 86.665-25.226 159.299-75.523 217.901-53.701 62.729-126.747 94.094-219.19 94.094-97.395 0-172.505-33.84-225.277-101.522-47.046-60.253-70.57-135.775-70.57-226.567 0-104.823 28.012-185.711 84.188-242.662 56.074-56.951 134.95-85.427 236.472-85.427 48.646 0 91.617 5.365 128.759 16.095 16.456 4.952 31.726 10.73 45.809 17.333 13.98 6.603 29.869 14.651 47.666 24.143 17.695 9.492 26.618 24.968 26.618 46.428 0 11.556-4.952 21.873-14.857 30.952s-20.274 13.619-30.952 13.619c-10.782 0-23.575-3.714-38.38-11.142-42.919-21.46-96.157-32.19-159.711-32.19-63.606 0-113.129 16.508-148.569 49.523-35.492 33.015-56.538 77.586-63.142 133.711zM4739.264 470.478c39.619-33.84 61.027-80.062 64.38-138.664h-365.231c1.65 32.19 8.667 59.84 21.048 82.951 33.84 65.205 87.439 97.807 160.898 97.807 46.273 0 85.84-14.031 118.906-42.094z" />
<glyph unicode="&#xe911;" horiz-adv-x="4915" d="M1500.471 944.246c0.694 0.017 1.512 0.026 2.332 0.026 56.981 0 103.173-46.192 103.173-103.173s-46.192-103.173-103.173-103.173c-0.802 0-1.602 0.009-2.4 0.027l0.119-0.002c-55.991 1.278-100.892 46.969-100.892 103.147 0 56.161 44.872 101.841 100.719 103.144l0.121 0.002z" />
<glyph unicode="&#xe912;" glyph-name="first" d="M998.232 116.111l-331.038 331.89 331.89 331.89c15.393 15.393 24.916 36.66 24.916 60.15 0 46.98-38.086 85.066-85.066 85.066-23.49 0-44.756-9.52-60.15-24.916l-391.614-391.614c-15.415-15.383-24.952-36.654-24.952-60.15s9.536-44.766 24.95-60.148l391.616-391.616c33.274-33.274 87.025-33.274 120.3 0 14.969 15.267 24.208 36.202 24.208 59.294 0 23.518-9.582 44.796-25.056 60.148l-0.006 0.006zM85.32 959.915c46.926 0 85.32-38.394 85.32-85.32v-853.191c0-46.926-38.394-85.32-85.32-85.32s-85.32 38.394-85.32 85.32v853.191c0 46.926 38.394 85.32 85.32 85.32z" />
<glyph unicode="&#xe913;" glyph-name="last" d="M24.915 779.891l331.89-331.89-331.89-331.89c-15.393-15.393-24.916-36.66-24.916-60.15 0-46.98 38.086-85.066 85.066-85.066 23.49 0 44.756 9.52 60.15 24.916l391.613 391.613c15.415 15.383 24.952 36.654 24.952 60.15s-9.536 44.766-24.95 60.148l-0.002 0.002-391.613 392.467c-15.383 15.415-36.654 24.952-60.15 24.952s-44.766-9.536-60.148-24.95l-0.002-0.002c-32.42-33.274-32.42-87.879 0-120.3zM938.68 959.914c46.926 0 85.32-38.393 85.32-85.32v-853.189c0-46.926-38.393-85.32-85.32-85.32s-85.32 38.393-85.32 85.32v853.189c0 46.926 38.393 85.32 85.32 85.32z" />
<glyph unicode="&#xe914;" glyph-name="next" d="M236.874 933.060c-16.57-16.536-26.821-39.399-26.821-64.655s10.251-48.119 26.818-64.653l355.833-355.833-355.831-355.831c-16.546-16.546-26.782-39.405-26.782-64.655 0-50.499 40.938-91.436 91.436-91.436 25.249 0 48.108 10.233 64.655 26.782l420.943 420.943c16.57 16.536 26.821 39.399 26.821 64.655s-10.251 48.119-26.818 64.653l-420.945 420.945c-34.849 34.849-93.543 34.849-129.309-0.918z" />
<glyph unicode="&#xe915;" glyph-name="prev" d="M786.931 933.2c-16.523 16.557-39.368 26.8-64.604 26.8s-48.082-10.243-64.602-26.797l-420.618-420.618c-16.557-16.523-26.8-39.368-26.8-64.604s10.243-48.082 26.797-64.602l420.618-420.618c16.533-16.533 39.375-26.761 64.604-26.761 50.459 0 91.365 40.906 91.365 91.365 0 25.23-10.225 48.071-26.761 64.604v0l-355.554 356.469 355.554 355.554c35.739 35.739 34.821 94.387 0 129.209z" />
<glyph unicode="&#xe916;" glyph-name="edit" d="M0.004 137.345v-172.928c0-0.077-0.002-0.167-0.002-0.257 0-15.552 12.608-28.16 28.16-28.16 0.090 0 0.18 0 0.272 0.002h172.914c0.107-0.002 0.234-0.003 0.36-0.003 7.71 0 14.658 3.27 19.53 8.499l0.015 0.017 621.186 620.61-213.313 213.313-620.61-620.61c-5.253-5.081-8.516-12.194-8.516-20.067 0-0.146 0.002-0.29 0.003-0.435v0.023zM1007.366 730.050c10.277 10.254 16.635 24.432 16.635 40.097s-6.359 29.841-16.634 40.095l-133.122 133.122c-10.254 10.277-24.432 16.635-40.097 16.635s-29.841-6.359-40.095-16.634l-104.066-104.066 213.313-213.313 104.064 104.064z" />
<glyph unicode="&#xe917;" glyph-name="remove" d="M191.999 64c0-70.4 57.6-128 128-128h384c70.4 0 128 57.6 128 128v640.001h-640.001v-640.001zM831.998 896.001h-128l-45.44 45.44c-11.52 11.52-28.16 18.56-44.801 18.56h-203.52c-16.64 0-33.281-7.040-44.801-18.56l-45.44-45.44h-128c-35.201 0-64.001-28.8-64.001-64.001s28.8-64.001 64.001-64.001h640.001c35.201 0 64.001 28.8 64.001 64.001s-28.8 64.001-64.001 64.001z" />
</font>
</defs>
</svg>
